<svg width="158" height="144" viewBox="0 0 158 144" fill="none" xmlns="http://www.w3.org/2000/svg">
<g clip-path="url(#clip0_120_11)">
<path opacity="0.5" d="M55.5915 0H24.0488C18.526 0 14.0488 4.47715 14.0488 10V41.5427C14.0488 47.0655 18.526 51.5427 24.0488 51.5427H55.5915C61.1144 51.5427 65.5915 47.0655 65.5915 41.5427V10C65.5915 4.47715 61.1144 0 55.5915 0Z" fill="#EEBCBC"/>
<path opacity="0.5" d="M147.359 32.8701H138C132.477 32.8701 128 37.3473 128 42.8701V52.2295C128 57.7524 132.477 62.2295 138 62.2295H147.359C152.882 62.2295 157.359 57.7524 157.359 52.2295V42.8701C157.359 37.3473 152.882 32.8701 147.359 32.8701Z" fill="#D26565"/>
<path opacity="0.5" d="M23.5329 74.8701H8C3.58172 74.8701 0 78.4518 0 82.8701V98.403C0 102.821 3.58172 106.403 8 106.403H23.5329C27.9512 106.403 31.5329 102.821 31.5329 98.403V82.8701C31.5329 78.4518 27.9512 74.8701 23.5329 74.8701Z" fill="#D26565"/>
<path opacity="0.5" d="M142.88 106.821H122.287C117.869 106.821 114.287 110.403 114.287 114.821V135.415C114.287 139.833 117.869 143.415 122.287 143.415H142.88C147.299 143.415 150.88 139.833 150.88 135.415V114.821C150.88 110.403 147.299 106.821 142.88 106.821Z" fill="#F3C7C7"/>
<path d="M83 138C116.137 138 143 111.137 143 78C143 44.8629 116.137 18 83 18C49.8629 18 23 44.8629 23 78C23 111.137 49.8629 138 83 138Z" fill="#FD2727"/>
<rect x="61" y="62" width="8.11041" height="53.5992" rx="4.0552" transform="rotate(-45 61 62)" fill="white"/>
<rect x="99" y="56" width="8.11041" height="53.5992" rx="4.0552" transform="rotate(45 99 56)" fill="white"/>
</g>
<defs>
<clipPath id="clip0_120_11">
<rect width="158" height="144" fill="white"/>
</clipPath>
</defs>
</svg>
